# xmcd CD database file
#
# Track frame offsets:
#	150
#	12773
#	26137
#	38262
#	50929
#	64892
#	84884
#	117256
#	141553
#	164760
#	192140
#	219819
#	235805
#	255883
#	282434
#	297694
#	331236
#
# Disc length: 4596 seconds
#
# Revision: 0
# Processed by: cddbd v1.4PL0 Copyright (c) Steve Scherf et al.
# Submitted via: CDex 1.51
#
DISCID=f711f211
DTITLE=Stan Getz - Stan Getz - The Sound - Swinging At Storyville
DYEAR=1900
DGENRE=Jazz
TTITLE0=Melody Express
TTITLE1=Yvette
TTITLE2=Potter's Luck
TTITLE3=The Song Is You
TTITLE4=Wildwood
TTITLE5=Thou Swell
TTITLE6=The Song Is You
TTITLE7=Mosquito Kisses
TTITLE8=Pennies From Heaven
TTITLE9=Move
TTITLE10=Parker 51
TTITLE11=Hershey Bar
TTITLE12=Rubberneck
TTITLE13=Signal
TTITLE14=Everything Happens To Me
TTITLE15=Jumpin' With Symphony Sid
TTITLE16=Yesterdays
EXTD=
EXTT0=
EXTT1=
EXTT2=
EXTT3=
EXTT4=
EXTT5=
EXTT6=
EXTT7=
EXTT8=
EXTT9=
EXTT10=
EXTT11=
EXTT12=
EXTT13=
EXTT14=
EXTT15=
EXTT16=
PLAYORDER=
